<svg xmlns="http://www.w3.org/2000/svg" viewBox="0 0 1200 630" width="1200" height="630">
  <rect width="1200" height="630" fill="#0f1117"/>
  <rect x="40" y="40" width="1120" height="550" rx="16" fill="#161921" stroke="#2c3044" stroke-width="2"/>

  <!-- .NET Core Logo (devicon inline) -->
  <g transform="translate(560,130) scale(0.625)" fill="#623697">
    <path d="M61.195 0h4.953c12.918.535 25.688 4.89 36.043 12.676 9.809 7.289 17.473 17.437 21.727 28.906 2.441 6.387 3.664 13.18 4.082 19.992v4.211c-.414 11.293-3.664 22.52-9.73 32.082-6.801 10.895-16.922 19.73-28.727 24.828A64.399 64.399 0 0165.082 128h-2.144c-11.735-.191-23.41-3.66-33.297-9.992-11.196-7.113-20.114-17.785-25.028-30.117C1.891 81.19.441 74.02 0 66.812v-4.957c.504-14.39 5.953-28.609 15.41-39.496C23.168 13.31 33.5 6.48 44.887 2.937 50.172 1.27 55.676.41 61.195 0"/>
    <path fill="#fff" d="M25.191 37.523c-.03 12.153-.011 24.305-.011 36.454 1.43.011 2.86.011 4.293.011-.075-10.433.101-20.863-.106-31.293.48.907.918 1.84 1.465 2.707C37.035 54.91 43.105 64.5 49.309 74c1.738-.023 3.476-.023 5.214.004-.003-12.16-.007-24.32.004-36.48a308.076 308.076 0 00-4.25-.012c.075 10.32-.136 20.64.125 30.949-6.507-10.352-13.101-20.645-19.695-30.945a370.85 370.85 0 00-5.516.007m38.844-.011c-.129 12.16-.004 24.32-.047 36.476 6.469-.015 12.938.024 19.41-.02a83.36 83.36 0 01.024-3.952c-5.012-.016-10.027.007-15.043-.02-.074-4.21-.004-8.426-.04-12.637 4.395-.078 8.79.012 13.18-.047-.011-1.277-.011-2.554-.019-3.832-4.387.141-8.773-.054-13.164.012.012-4.023.02-8.05.02-12.078 4.699 0 9.398-.02 14.093.012-.008-1.301 0-2.606.016-3.906-6.145-.016-12.29-.008-18.43-.008m22.602.054c.004 1.266.004 2.528.008 3.79 3.488-.04 6.972.109 10.46.035-.023 10.863.004 21.718-.011 32.574 1.46.043 2.93.035 4.39-.09-.12-5.992.118-11.988-.156-17.977.067-2.699-.07-5.394.117-8.09.106-2.14-.277-4.277-.035-6.417 3.516.047 7.035.015 10.55.015a59.774 59.774 0 01.075-3.832c-8.469-.105-16.937-.094-25.398-.008"/>
  </g>

  <!-- Title -->
  <text x="600" y="310" font-family="Inter, system-ui, sans-serif" font-size="48" font-weight="700" fill="#e2e4e9" text-anchor="middle">EF Core Geliştirici El Kitabı</text>

  <!-- Subtitle -->
  <text x="600" y="370" font-family="Inter, system-ui, sans-serif" font-size="24" fill="#9ca3b4" text-anchor="middle">Kapsamlı Türkçe EF Core 8 / 9 / 10 · .NET 9+ Production Reference</text>

  <!-- Stats -->
  <text x="600" y="430" font-family="Inter, system-ui, sans-serif" font-size="18" fill="#512BD4" text-anchor="middle">45 Bölüm · 22 SVG Diyagram · 205+ Kod Örneği</text>

  <!-- Level badges -->
  <rect x="310" y="470" width="100" height="32" rx="16" fill="#34d399" opacity="0.2"/>
  <text x="360" y="491" font-family="Inter, system-ui, sans-serif" font-size="14" fill="#34d399" text-anchor="middle">🟢 Temel</text>

  <rect x="430" y="470" width="100" height="32" rx="16" fill="#fb923c" opacity="0.2"/>
  <text x="480" y="491" font-family="Inter, system-ui, sans-serif" font-size="14" fill="#fb923c" text-anchor="middle">🟡 Orta</text>

  <rect x="550" y="470" width="100" height="32" rx="16" fill="#512BD4" opacity="0.2"/>
  <text x="600" y="491" font-family="Inter, system-ui, sans-serif" font-size="14" fill="#512BD4" text-anchor="middle">🟠 İleri</text>

  <rect x="670" y="470" width="110" height="32" rx="16" fill="#c76a6a" opacity="0.2"/>
  <text x="725" y="491" font-family="Inter, system-ui, sans-serif" font-size="14" fill="#c76a6a" text-anchor="middle">🔴 Uzman</text>

  <!-- Footer -->
  <text x="600" y="560" font-family="Inter, system-ui, sans-serif" font-size="16" fill="#6b7280" text-anchor="middle">oxara.github.io/efcore-handbook</text>
</svg>
