<svg xmlns="http://www.w3.org/2000/svg" viewBox="0 0 1200 630" width="1200" height="630">
  <rect width="1200" height="630" fill="#0f1117"/>
  <rect x="40" y="40" width="1120" height="550" rx="16" fill="#161921" stroke="#2c3044" stroke-width="2"/>

  <!-- EF Core Icon -->
  <circle cx="600" cy="200" r="60" fill="#512BD4" opacity="0.15"/>
  <rect x="580" y="170" width="40" height="50" rx="4" fill="none" stroke="#512BD4" stroke-width="3"/>
  <line x1="588" y1="182" x2="612" y2="182" stroke="#512BD4" stroke-width="2"/>
  <line x1="588" y1="192" x2="608" y2="192" stroke="#512BD4" stroke-width="2"/>
  <line x1="588" y1="202" x2="604" y2="202" stroke="#512BD4" stroke-width="2"/>
  <path d="M595 220 L595 240 L615 240" fill="none" stroke="#512BD4" stroke-width="2.5" stroke-linecap="round"/>
  <circle cx="620" cy="240" r="5" fill="#512BD4"/>

  <!-- Title -->
  <text x="600" y="310" font-family="Inter, system-ui, sans-serif" font-size="48" font-weight="700" fill="#e2e4e9" text-anchor="middle">EF Core Geliştirici El Kitabı</text>

  <!-- Subtitle -->
  <text x="600" y="370" font-family="Inter, system-ui, sans-serif" font-size="24" fill="#9ca3b4" text-anchor="middle">Kapsamlı Türkçe EF Core 8 / 9 / 10 · .NET 9+ Production Reference</text>

  <!-- Stats -->
  <text x="600" y="430" font-family="Inter, system-ui, sans-serif" font-size="18" fill="#512BD4" text-anchor="middle">45 Bölüm · 22 SVG Diyagram · 205+ Kod Örneği</text>

  <!-- Level badges -->
  <rect x="310" y="470" width="100" height="32" rx="16" fill="#34d399" opacity="0.2"/>
  <text x="360" y="491" font-family="Inter, system-ui, sans-serif" font-size="14" fill="#34d399" text-anchor="middle">🟢 Temel</text>

  <rect x="430" y="470" width="100" height="32" rx="16" fill="#fb923c" opacity="0.2"/>
  <text x="480" y="491" font-family="Inter, system-ui, sans-serif" font-size="14" fill="#fb923c" text-anchor="middle">🟡 Orta</text>

  <rect x="550" y="470" width="100" height="32" rx="16" fill="#512BD4" opacity="0.2"/>
  <text x="600" y="491" font-family="Inter, system-ui, sans-serif" font-size="14" fill="#512BD4" text-anchor="middle">🟠 İleri</text>

  <rect x="670" y="470" width="110" height="32" rx="16" fill="#c76a6a" opacity="0.2"/>
  <text x="725" y="491" font-family="Inter, system-ui, sans-serif" font-size="14" fill="#c76a6a" text-anchor="middle">🔴 Uzman</text>

  <!-- Footer -->
  <text x="600" y="560" font-family="Inter, system-ui, sans-serif" font-size="16" fill="#6b7280" text-anchor="middle">oxara.github.io/efcore-handbook</text>
</svg>
